<?xml version="1.0" encoding="UTF-8" standalone="no"?>
<!-- Created with Inkscape (http://www.inkscape.org/) -->

<svg
   xmlns:dc="http://purl.org/dc/elements/1.1/"
   xmlns:cc="http://creativecommons.org/ns#"
   xmlns:rdf="http://www.w3.org/1999/02/22-rdf-syntax-ns#"
   xmlns:svg="http://www.w3.org/2000/svg"
   xmlns="http://www.w3.org/2000/svg"
   xmlns:sodipodi="http://sodipodi.sourceforge.net/DTD/sodipodi-0.dtd"
   xmlns:inkscape="http://www.inkscape.org/namespaces/inkscape"
   width="210mm"
   height="52mm"
   viewBox="0 0 744.09449 184.25199"
   id="svg3556"
   version="1.1"
   inkscape:version="0.91 r13725"
   sodipodi:docname="Logo.svg">
  <defs
     id="defs3558" />
  <sodipodi:namedview
     id="base"
     pagecolor="#ffffff"
     bordercolor="#666666"
     borderopacity="1.0"
     inkscape:pageopacity="0.0"
     inkscape:pageshadow="2"
     inkscape:zoom="0.98994949"
     inkscape:cx="490.42307"
     inkscape:cy="15.572201"
     inkscape:document-units="px"
     inkscape:current-layer="layer1"
     showgrid="false"
     inkscape:window-width="2096"
     inkscape:window-height="1289"
     inkscape:window-x="0"
     inkscape:window-y="24"
     inkscape:window-maximized="1" />
  <metadata
     id="metadata3561">
    <rdf:RDF>
      <cc:Work
         rdf:about="">
        <dc:format>image/svg+xml</dc:format>
        <dc:type
           rdf:resource="http://purl.org/dc/dcmitype/StillImage" />
        <dc:title></dc:title>
      </cc:Work>
    </rdf:RDF>
  </metadata>
  <g
     inkscape:label="Ebene 1"
     inkscape:groupmode="layer"
     id="layer1"
     transform="translate(0,-868.11028)">
    <path
       d="m 13.530296,978.95556 -14.09546887,0 0,74.33104 50.15076587,0 0,-13.4248 c 0,0 -35.212539,0 -36.055297,0 0,-0.849 0,-60.90624 0,-60.90624 l 0,0"
       style="fill:#5f8ea2;fill-opacity:1;fill-rule:nonzero;stroke:none"
       id="path3367"
       inkscape:connector-curvature="0" />
    <path
       d="m 106.26659,1033.7953 c 0,0.4554 -0.19132,0.8991 -0.53524,1.2405 l -4.30201,4.291 c -0.38731,0.3911 -0.72656,0.535 -1.2394,0.535 l -16.428223,0 c -0.512842,0 -0.845092,-0.1437 -1.234739,-0.535 l -4.302004,-4.291 c -0.345314,-0.3415 -0.531501,-0.7848 -0.531501,-1.2405 l 0,-54.83974 -14.09921,0 0,57.04754 c 0,2.2353 0.8227,4.1885 2.444754,5.809 l 9.038905,9.0319 c 1.619728,1.6164 3.579637,2.4426 5.819533,2.4426 l 22.160955,0 c 2.24222,0 4.19934,-0.8262 5.81906,-2.4426 l 9.0389,-9.0319 c 1.623,-1.6205 2.44523,-3.5737 2.44523,-5.809 l 0,-57.04754 -14.09501,0 0,54.83974"
       style="fill:#5f8ea2;fill-opacity:1;fill-rule:nonzero;stroke:none"
       id="path3369"
       inkscape:connector-curvature="0" />
    <path
       d="m 421.122,978.95556 c 0,0 0,51.33474 0,55.26104 -1.54926,-3.6419 -23.53709,-55.26104 -23.53709,-55.26104 l -19.46374,0 0,74.33104 13.76227,0 c 0,0 0,-51.3347 0,-55.261 1.54927,3.6419 23.54224,55.261 23.54224,55.261 l 19.45861,0 0,-74.33104 -13.76229,0 0,0"
       style="fill:#5f8ea2;fill-opacity:1;fill-rule:nonzero;stroke:none"
       id="path3371"
       inkscape:connector-curvature="0" />
    <path
       d="m 154.36925,1031.5349 c 0.002,0 36.82993,-20.9679 36.82993,-20.9679 2.91186,-1.6612 4.70052,-4.1651 4.77844,-7.4474 l 0,-24.16404 -54.95161,0 0,13.42486 40.85428,0 0,6.73774 c 0,0.67826 -0.48531,1.25864 -1.06022,1.58614 0,0 -36.83227,21.0844 -36.83227,21.0844 -2.89598,1.6572 -4.7117,4.1611 -4.77844,7.4429 l 0,24.055 56.76826,0 0,-13.4248 c 0,0 -41.82489,0 -42.67092,0 0,-0.7925 0,-6.7378 0,-6.7378 0,-0.6783 0.48298,-1.2563 1.06255,-1.5891 l 0,0"
       style="fill:#5f8ea2;fill-opacity:1;fill-rule:nonzero;stroke:none"
       id="path3373"
       inkscape:connector-curvature="0" />
    <path
       d="m 312.4288,1010.8975 0,-18.51708 c 0.83389,0 24.37332,0 24.37332,0 0.51283,0 0.84975,0.13673 1.2394,0.52791 l 2.42702,2.42459 c 0.38731,0.39338 0.53338,0.72371 0.53338,1.23591 l 0,10.13317 c 0,0.5122 -0.14466,0.849 -0.53338,1.2359 l -2.42702,2.4246 c -0.39198,0.3868 -0.72657,0.535 -1.2394,0.535 0,0 -23.53943,0 -24.37332,0 l 0,0 z m 37.78281,28.9643 c -4.8853,-6.2256 -11.74357,-14.9778 -12.18828,-15.5465 0.78163,0 1.75691,0 1.75691,0 2.16942,0 4.05141,-0.7854 5.5988,-2.3262 l 7.27732,-7.268 c 1.64306,-1.6432 2.44056,-3.5463 2.44056,-5.8153 l 0,-14.53375 c 0,-2.27601 -0.7975,-4.17679 -2.44056,-5.81533 l -7.27732,-7.27269 c -1.54972,-1.54768 -3.4317,-2.32847 -5.5988,-2.32847 l -50.50355,0 0,13.41786 9.05478,0 0,60.91318 14.09733,0 c 0,0 0,-28.1293 0,-28.9713 0.77463,0 7.61471,0 7.61471,0 0.6407,0 1.16894,0.2772 1.51565,0.7966 0,0.028 21.86931,28.1747 21.86931,28.1747 l 4.23759,0 11.60732,0 0,-13.4248 -9.06177,0 0,0"
       style="fill:#5f8ea2;fill-opacity:1;fill-rule:nonzero;stroke:none"
       id="path3375"
       inkscape:connector-curvature="0" />
    <path
       d="m 273.03512,992.26679 0,-13.41785 -59.20788,0 0,13.41785 9.05945,0 0,60.90321 50.14843,0 0,-13.4178 c 0,0 -35.21021,0 -36.05297,0 l 0,-17.0871 c 0.84276,0 26.99587,0 26.99587,0 l 0,-13.4184 c 0,0 -26.15311,0 -26.99587,0 l 0,-16.97991 c 0.84276,0 36.05297,0 36.05297,0 l 0,0"
       style="fill:#5f8ea2;fill-opacity:1;fill-rule:nonzero;stroke:none"
       id="path3377"
       inkscape:connector-curvature="0" />
    <path
       d="m 42.102945,867.46394 c 0,0 0,29.55863 0,30.3983 l -28.572649,0 c 0,-0.83967 0,-30.3983 0,-30.3983 l -14.09546887,0 0,74.32636 14.09546887,0 c 0,0 0,-29.66764 0,-30.50787 l 28.572649,0 c 0,0.84023 0,30.50787 0,30.50787 l 14.095001,0 0,-74.32636 -14.095001,0 0,0"
       style="fill:#2d3f4c;fill-opacity:1;fill-rule:nonzero;stroke:none"
       id="path3379"
       inkscape:connector-curvature="0" />
    <path
       d="m 127.55491,886.9506 0,35.35538 c 0,0.45311 -0.18665,0.89268 -0.53056,1.2359 l -4.302,4.29566 c -0.38731,0.38918 -0.72657,0.53491 -1.23941,0.53491 l -23.040578,0 c -0.512842,0 -0.849761,-0.14559 -1.239413,-0.53491 l -4.299668,-4.29566 c -0.345315,-0.34298 -0.533368,-0.78256 -0.533368,-1.2359 l 0,-35.35538 c 0,-0.45545 0.186655,-0.8927 0.533368,-1.23824 l 4.299668,-4.29565 c 0.391989,-0.38872 0.726571,-0.53436 1.239413,-0.53436 l 23.040578,0 c 0.51284,0 0.84976,0.1456 1.23941,0.53436 l 4.302,4.29565 c 0.34531,0.34531 0.53056,0.78256 0.53056,1.23824 l 0,0 z m 11.65445,-8.01682 -9.0389,-9.03185 c -1.61972,-1.61875 -3.5773,-2.43799 -5.81905,-2.43799 l -28.777982,0 c -2.237567,0 -4.197472,0.81924 -5.819525,2.43799 l -9.038914,9.03185 c -1.61972,1.62052 -2.440077,3.57547 -2.440077,5.8107 l 0,39.76294 c 0,2.23934 0.820357,4.19486 2.440077,5.81304 l 9.038914,9.02952 c 1.622053,1.62108 3.579631,2.44032 5.819525,2.44032 l 28.777982,0 c 2.24175,0 4.19933,-0.81924 5.81905,-2.44032 l 9.0389,-9.02952 c 1.623,-1.61818 2.44523,-3.5737 2.44523,-5.81304 l 0,-39.76294 c 0,-2.23523 -0.82223,-4.19252 -2.44523,-5.8107 l 0,0"
       style="fill:#2d3f4c;fill-opacity:1;fill-rule:nonzero;stroke:none"
       id="path3381"
       inkscape:connector-curvature="0" />
    <path
       d="m 200.10137,927.83754 c -0.38732,0.38918 -0.72657,0.53491 -1.23708,0.53491 l -18.19214,0 c -0.51285,0 -0.84743,-0.14559 -1.23942,-0.53491 l -4.30198,-4.29566 c -0.34066,-0.34298 -0.53104,-0.78256 -0.53104,-1.2359 l 0,-35.35538 c 0,-0.45545 0.19132,-0.8927 0.53104,-1.23824 l 4.30198,-4.29565 c 0.39199,-0.38872 0.72657,-0.53436 1.23942,-0.53436 l 18.19214,0 c 0.51051,0 0.84743,0.1456 1.23708,0.53436 l 7.80183,7.79361 9.54708,-9.41879 -9.89987,-9.8896 c -1.62066,-1.61875 -3.57776,-2.43799 -5.81999,-2.43799 l -23.92487,0 c -2.2413,0 -4.2012,0.81924 -5.81907,2.43799 l -9.04123,9.03185 c -1.62206,1.62052 -2.44288,3.57547 -2.44288,5.8107 l 0,39.76294 c 0,2.23934 0.82082,4.19486 2.44288,5.81304 l 9.04123,9.02952 c 1.61787,1.62108 3.57777,2.44032 5.81907,2.44032 l 23.92487,0 c 2.24223,0 4.19933,-0.81924 5.81999,-2.44032 l 9.89987,-9.88492 -9.54708,-9.42115 -7.80183,7.79363 0,0"
       style="fill:#2d3f4c;fill-opacity:1;fill-rule:nonzero;stroke:none"
       id="path3383"
       inkscape:connector-curvature="0" />
    <path
       d="m 277.35485,867.46394 c 0,0 0,29.55863 0,30.3983 l -28.57265,0 c 0,-0.83967 0,-30.3983 0,-30.3983 l -14.095,0 0,74.32636 14.095,0 c 0,0 0,-29.66764 0,-30.50787 l 28.57265,0 c 0,0.84023 0,30.50787 0,30.50787 l 14.095,0 0,-74.32636 -14.095,0 0,0"
       style="fill:#2d3f4c;fill-opacity:1;fill-rule:nonzero;stroke:none"
       id="path3385"
       inkscape:connector-curvature="0" />
    <path
       d="m 430.31583,927.83754 c -0.39198,0.38918 -0.72189,0.53491 -1.2394,0.53491 l -18.18981,0 c -0.51284,0 -0.84976,-0.14559 -1.23707,-0.53491 l -4.29967,-4.29566 c -0.34998,-0.34298 -0.53571,-0.78256 -0.53571,-1.2359 l 0,-35.35538 c 0,-0.45545 0.18666,-0.8927 0.53571,-1.23824 l 4.29967,-4.29565 c 0.38731,-0.38872 0.72423,-0.53436 1.23707,-0.53436 l 18.18981,0 c 0.5105,0 0.84742,0.1456 1.2394,0.53436 l 7.7995,7.79361 9.54709,-9.41879 -9.9008,-9.8896 c -1.61739,-1.61875 -3.57683,-2.43799 -5.81673,-2.43799 l -23.92487,0 c -2.24363,0 -4.19653,0.81924 -5.82139,2.43799 l -9.03891,9.03185 c -1.62486,1.61818 -2.44521,3.57547 -2.44521,5.8107 l 0,39.76294 c 0,2.23934 0.82035,4.19486 2.44521,5.81304 l 9.03891,9.02952 c 1.61785,1.62108 3.57776,2.44032 5.82139,2.44032 l 23.92487,0 c 2.2399,0 4.19934,-0.81924 5.81673,-2.44032 l 9.9008,-9.88492 -9.54709,-9.42115 -7.7995,7.79363 0,0"
       style="fill:#2d3f4c;fill-opacity:1;fill-rule:nonzero;stroke:none"
       id="path3387"
       inkscape:connector-curvature="0" />
    <path
       d="m 507.56932,867.46394 c 0,0 0,29.55863 0,30.3983 l -28.57265,0 c 0,-0.83967 0,-30.3983 0,-30.3983 l -14.09732,0 0,74.32636 14.09732,0 c 0,0 0,-29.66764 0,-30.50787 l 28.57265,0 c 0,0.84023 0,30.50787 0,30.50787 l 14.09967,0 0,-74.32636 -14.09967,0 0,0"
       style="fill:#2d3f4c;fill-opacity:1;fill-rule:nonzero;stroke:none"
       id="path3389"
       inkscape:connector-curvature="0" />
    <path
       d="m 588.02446,867.46394 0,54.84204 c 0,0.45311 -0.19132,0.89268 -0.53104,1.23413 0,0.002 -4.3048,4.29743 -4.3048,4.29743 -0.39198,0.38918 -0.72796,0.53491 -1.24081,0.53491 l -16.42822,0 c -0.51238,0 -0.84276,-0.14559 -1.23708,-0.53491 l -4.29965,-4.29566 c -0.34066,-0.34532 -0.53524,-0.78256 -0.53524,-1.2359 l 0,-54.84204 -14.09968,0 0,57.04348 c 0,2.23934 0.8269,4.19486 2.44475,5.81304 l 9.03892,9.02952 c 1.61784,1.62108 3.57729,2.44032 5.81719,2.44032 l 22.16748,0 c 2.2399,0 4.1998,-0.81924 5.82139,-2.44032 l 9.03517,-9.02952 c 1.6216,-1.61818 2.44428,-3.5737 2.44428,-5.81304 l 0,-57.04348 -14.09266,0 0,0"
       style="fill:#2d3f4c;fill-opacity:1;fill-rule:nonzero;stroke:none"
       id="path3391"
       inkscape:connector-curvature="0" />
    <path
       d="m 639.89762,928.37245 c 0,-0.85364 0,-60.90851 0,-60.90851 l -14.09267,0 0,74.32636 50.15262,0 0,-13.41785 c 0,0 -35.21393,0 -36.05995,0 l 0,0"
       style="fill:#2d3f4c;fill-opacity:1;fill-rule:nonzero;stroke:none"
       id="path3393"
       inkscape:connector-curvature="0" />
    <path
       d="m 365.49609,901.05839 -37.87894,-5.28803 c -0.89035,-0.0863 -1.60805,-0.8828 -1.60805,-1.77316 l 0,-7.04893 c 0,-0.45312 0.19132,-0.89037 0.5357,-1.23825 l 4.2992,-4.29331 c 0.38731,-0.38872 0.72703,-0.53436 1.23988,-0.53436 l 21.22158,0 c 0.50865,0 0.84604,0.1456 1.23568,0.53436 l 7.69637,7.68466 9.42622,-9.53243 -9.67447,-9.66701 c -1.61973,-1.61875 -3.5773,-2.44033 -5.81906,-2.44033 l -26.95526,0 c -2.24223,0 -4.19747,0.82158 -5.8172,2.44033 l -9.04124,9.03185 c -1.61971,1.61818 -2.44054,3.5737 -2.44054,5.8107 l 0,14.42885 c 0.10733,4.48389 3.5045,8.44683 7.98429,9.0208 l 37.76648,5.28507 c 0.92069,0.0934 1.71819,0.92186 1.71819,1.7755 l 0,7.04717 c 0,0.45265 -0.19132,0.89446 -0.53571,1.23824 l -4.29966,4.29743 c -0.38732,0.38918 -0.72658,0.53491 -1.23942,0.53491 l -25.02475,0 c -0.51284,0 -0.85022,-0.14559 -1.23754,-0.53491 l -7.69871,-7.68932 -9.42715,9.53708 9.67727,9.66468 c 1.61787,1.61874 3.57497,2.44032 5.8172,2.44032 l 30.76261,0 c 2.24223,0 4.19748,-0.82158 5.81954,-2.44032 l 9.0389,-9.02952 c 1.61972,-1.61818 2.37849,-3.57547 2.44009,-5.81304 l 0,-14.42885 c 0,-4.48622 -3.50404,-8.44683 -7.9815,-9.02018 l 0,0"
       style="fill:#2d3f4c;fill-opacity:1;fill-rule:nonzero;stroke:none"
       id="path3395"
       inkscape:connector-curvature="0" />
    <path
       d="m 743.34106,880.88235 0,-13.42075 -59.20553,0 0,13.42075 9.05291,0 0,60.90795 50.15262,0 0,-13.41785 c 0,0 -35.21393,0 -36.05389,0 l 0,-17.09002 c 0.83996,0 27.001,0 27.001,0 l 0,-13.42019 c 0,0 -26.16104,0 -27.001,0 l 0,-16.97989 c 0.83996,0 36.05389,0 36.05389,0 l 0,0"
       style="fill:#2d3f4c;fill-opacity:1;fill-rule:nonzero;stroke:none"
       id="path3397"
       inkscape:connector-curvature="0" />
  </g>
</svg>
