<?xml version="1.0" encoding="utf-8"?>
<!-- Generator: Adobe Illustrator 22.0.0, SVG Export Plug-In . SVG Version: 6.00 Build 0)  -->
<svg version="1.1" id="Capa_1" xmlns="http://www.w3.org/2000/svg" xmlns:xlink="http://www.w3.org/1999/xlink" x="0px" y="0px"
	 viewBox="0 0 512 512" style="enable-background:new 0 0 512 512;" xml:space="preserve">
<style type="text/css">
	.st0{fill:#415E6C;}
</style>
<g>
	<path class="st0" d="M0,256c0,6,3.4,11.6,8.8,14.3l480,240c2.3,1.1,4.7,1.7,7.2,1.7c2.9,0,5.9-0.8,8.4-2.4
		c4.7-2.9,7.6-8.1,7.6-13.6V304h-96v48c0,5.5-2.9,10.7-7.6,13.6c-2.6,1.6-5.5,2.4-8.4,2.4c-2.5,0-4.9-0.6-7.2-1.7l-192-96
		c-5.4-2.7-8.8-8.3-8.8-14.3c0-6,3.4-11.6,8.9-14.3l192-96c5-2.5,10.8-2.2,15.6,0.7c4.7,2.9,7.6,8.1,7.6,13.6v48h96V16
		c0-5.5-2.9-10.7-7.6-13.6c-4.7-2.9-10.6-3.2-15.6-0.7l-480,240C3.4,244.4,0,249.9,0,256z"/>
</g>
</svg>
